<svg width="99" height="645" viewBox="0 0 99 645" fill="none" xmlns="http://www.w3.org/2000/svg">
<path d="M95.5 46C95.5 69.2348 75.1512 88.5 49.5 88.5C23.8488 88.5 3.5 69.2348 3.5 46C3.5 22.7652 23.8488 3.5 49.5 3.5C75.1512 3.5 95.5 22.7652 95.5 46Z" stroke="#C94D4D" stroke-width="7"/>
<path d="M54.8125 68H49V29.4688L37.3438 33.75V28.5L53.9062 22.2812H54.8125V68Z" fill="black"/>
<path d="M95.5 229C95.5 252.235 75.1512 271.5 49.5 271.5C23.8488 271.5 3.5 252.235 3.5 229C3.5 205.765 23.8488 186.5 49.5 186.5C75.1512 186.5 95.5 205.765 95.5 229Z" stroke="#C94D4D" stroke-width="7"/>
<path d="M65.625 251H35.8125V246.844L51.5625 229.344C53.8958 226.698 55.5 224.552 56.375 222.906C57.2708 221.24 57.7188 219.521 57.7188 217.75C57.7188 215.375 57 213.427 55.5625 211.906C54.125 210.385 52.2083 209.625 49.8125 209.625C46.9375 209.625 44.6979 210.448 43.0938 212.094C41.5104 213.719 40.7188 215.99 40.7188 218.906H34.9375C34.9375 214.719 36.2812 211.333 38.9688 208.75C41.6771 206.167 45.2917 204.875 49.8125 204.875C54.0417 204.875 57.3854 205.99 59.8438 208.219C62.3021 210.427 63.5312 213.375 63.5312 217.062C63.5312 221.542 60.6771 226.875 54.9688 233.062L42.7812 246.281H65.625V251Z" fill="black"/>
<path d="M95.5 599C95.5 622.235 75.1512 641.5 49.5 641.5C23.8488 641.5 3.5 622.235 3.5 599C3.5 575.765 23.8488 556.5 49.5 556.5C75.1512 556.5 95.5 575.765 95.5 599Z" stroke="#C94D4D" stroke-width="7"/>
<path d="M60.2188 606.719H66.5312V611.438H60.2188V622H54.4062V611.438H33.6875V608.031L54.0625 576.5H60.2188V606.719ZM40.25 606.719H54.4062V584.406L53.7188 585.656L40.25 606.719Z" fill="black"/>
<path d="M95.5 414C95.5 437.235 75.1512 456.5 49.5 456.5C23.8488 456.5 3.5 437.235 3.5 414C3.5 390.765 23.8488 371.5 49.5 371.5C75.1512 371.5 95.5 390.765 95.5 414Z" stroke="#C94D4D" stroke-width="7"/>
<path d="M44.2188 408.438H48.5625C51.2917 408.396 53.4375 407.677 55 406.281C56.5625 404.885 57.3438 403 57.3438 400.625C57.3438 395.292 54.6875 392.625 49.375 392.625C46.875 392.625 44.875 393.344 43.375 394.781C41.8958 396.198 41.1562 398.083 41.1562 400.438H35.375C35.375 396.833 36.6875 393.844 39.3125 391.469C41.9583 389.073 45.3125 387.875 49.375 387.875C53.6667 387.875 57.0312 389.01 59.4688 391.281C61.9062 393.552 63.125 396.708 63.125 400.75C63.125 402.729 62.4792 404.646 61.1875 406.5C59.9167 408.354 58.1771 409.74 55.9688 410.656C58.4688 411.448 60.3958 412.76 61.75 414.594C63.125 416.427 63.8125 418.667 63.8125 421.312C63.8125 425.396 62.4792 428.635 59.8125 431.031C57.1458 433.427 53.6771 434.625 49.4062 434.625C45.1354 434.625 41.6562 433.469 38.9688 431.156C36.3021 428.844 34.9688 425.792 34.9688 422H40.7812C40.7812 424.396 41.5625 426.312 43.125 427.75C44.6875 429.188 46.7812 429.906 49.4062 429.906C52.1979 429.906 54.3333 429.177 55.8125 427.719C57.2917 426.26 58.0312 424.167 58.0312 421.438C58.0312 418.792 57.2188 416.76 55.5938 415.344C53.9688 413.927 51.625 413.198 48.5625 413.156H44.2188V408.438Z" fill="black"/>
<line x1="52.4998" y1="87.9624" x2="53.5213" y2="182.962" stroke="#C94D4D" stroke-width="7"/>
<line x1="52.4998" y1="276.962" x2="53.5213" y2="371.962" stroke="#C94D4D" stroke-width="7"/>
<line x1="51.4998" y1="457.962" x2="52.5213" y2="552.962" stroke="#C94D4D" stroke-width="7"/>
</svg>
